HIERARCHY
ROOT Hips
{
	OFFSET -0.000000 0.868582 0.011827
	CHANNELS 6 Xposition Yposition Zposition Xrotation Yrotation Zrotation
	JOINT LeftUpLeg
	{
		OFFSET 0.074879 -0.061236 0.002079
		CHANNELS 6 Xposition Yposition Zposition Xrotation Yrotation Zrotation
		JOINT LeftLeg
		{
			OFFSET -0.017675 -0.350308 -0.015221
			CHANNELS 6 Xposition Yposition Zposition Xrotation Yrotation Zrotation
			JOINT LeftFoot
			{
				OFFSET -0.010321 -0.378203 -0.016503
				CHANNELS 6 Xposition Yposition Zposition Xrotation Yrotation Zrotation
				JOINT LeftToeBase
				{
					OFFSET 0.002025 -0.052755 0.081308
					CHANNELS 6 Xposition Yposition Zposition Xrotation Yrotation Zrotation
					JOINT LeftToeBase_end
					{
						OFFSET 0.000094 0.000146 0.096940
						CHANNELS 3 Xrotation Yrotation Zrotation
						End Site
						{
							OFFSET 0.000094 0.000146 0.096940
						}
					}
				}
			}
		}
	}
	JOINT RightUpLeg
	{
		OFFSET -0.074845 -0.057343 0.002079
		CHANNELS 6 Xposition Yposition Zposition Xrotation Yrotation Zrotation
		JOINT RightLeg
		{
			OFFSET 0.018235 -0.351096 -0.015874
			CHANNELS 6 Xposition Yposition Zposition Xrotation Yrotation Zrotation
			JOINT RightFoot
			{
				OFFSET 0.010317 -0.378179 -0.017101
				CHANNELS 6 Xposition Yposition Zposition Xrotation Yrotation Zrotation
				JOINT RightToeBase
				{
					OFFSET -0.002025 -0.052879 0.081241
					CHANNELS 6 Xposition Yposition Zposition Xrotation Yrotation Zrotation
					JOINT RightToeBase_end
					{
						OFFSET 0.000012 -0.000001 0.096942
						CHANNELS 3 Xrotation Yrotation Zrotation
						End Site
						{
							OFFSET 0.000012 -0.000001 0.096942
						}
					}
				}
			}
		}
	}
	JOINT Spine
	{
		OFFSET -0.000000 0.022713 0.008181
		CHANNELS 6 Xposition Yposition Zposition Xrotation Yrotation Zrotation
		JOINT Chest
		{
			OFFSET -0.000000 0.090859 0.009554
			CHANNELS 6 Xposition Yposition Zposition Xrotation Yrotation Zrotation
			JOINT LeftShoulder
			{
				OFFSET 0.042115 0.203778 -0.040167
				CHANNELS 6 Xposition Yposition Zposition Xrotation Yrotation Zrotation
				JOINT LeftArm
				{
					OFFSET 0.055437 0.000000 -0.000000
					CHANNELS 6 Xposition Yposition Zposition Xrotation Yrotation Zrotation
					JOINT LeftForeArm
					{
						OFFSET 0.233774 -0.001235 0.000334
						CHANNELS 6 Xposition Yposition Zposition Xrotation Yrotation Zrotation
						JOINT LeftHand
						{
							OFFSET 0.162477 -0.001189 0.000358
							CHANNELS 6 Xposition Yposition Zposition Xrotation Yrotation Zrotation
							JOINT LeftHandThumb1
							{
								OFFSET 0.025104 -0.009040 0.020916
								CHANNELS 6 Xposition Yposition Zposition Xrotation Yrotation Zrotation
								JOINT LeftHandThumb2
								{
									OFFSET 0.025705 -0.011304 0.015845
									CHANNELS 6 Xposition Yposition Zposition Xrotation Yrotation Zrotation
									JOINT LeftHandThumb3
									{
										OFFSET 0.014208 -0.006058 0.008426
										CHANNELS 6 Xposition Yposition Zposition Xrotation Yrotation Zrotation
										JOINT LeftHandThumb3_end
										{
											OFFSET 0.021701 -0.008502 0.012261
											CHANNELS 3 Xrotation Yrotation Zrotation
											End Site
											{
												OFFSET 0.021701 -0.008502 0.012261
											}
										}
									}
								}
							}
							JOINT LeftHandIndex1
							{
								OFFSET 0.080439 0.009893 0.024808
								CHANNELS 6 Xposition Yposition Zposition Xrotation Yrotation Zrotation
								JOINT LeftHandIndex2
								{
									OFFSET 0.024270 0.000119 0.002684
									CHANNELS 6 Xposition Yposition Zposition Xrotation Yrotation Zrotation
									JOINT LeftHandIndex3
									{
										OFFSET 0.016099 0.000079 0.000373
										CHANNELS 6 Xposition Yposition Zposition Xrotation Yrotation Zrotation
										JOINT LeftHandIndex3_end
										{
											OFFSET 0.021229 0.002132 0.000138
											CHANNELS 3 Xrotation Yrotation Zrotation
											End Site
											{
												OFFSET 0.021229 0.002132 0.000138
											}
										}
									}
								}
							}
							JOINT LeftHandMiddle1
							{
								OFFSET 0.080382 0.010074 0.004393
								CHANNELS 6 Xposition Yposition Zposition Xrotation Yrotation Zrotation
								JOINT LeftHandMiddle2
								{
									OFFSET 0.025270 -0.002344 -0.000810
									CHANNELS 6 Xposition Yposition Zposition Xrotation Yrotation Zrotation
									JOINT LeftHandMiddle3
									{
										OFFSET 0.019313 -0.001793 -0.001178
										CHANNELS 6 Xposition Yposition Zposition Xrotation Yrotation Zrotation
										JOINT LeftHandMiddle3_end
										{
											OFFSET 0.021885 0.000328 -0.002525
											CHANNELS 3 Xrotation Yrotation Zrotation
											End Site
											{
												OFFSET 0.021885 0.000328 -0.002525
											}
										}
									}
								}
							}
							JOINT LeftHandRing1
							{
								OFFSET 0.076621 0.006166 -0.013667
								CHANNELS 6 Xposition Yposition Zposition Xrotation Yrotation Zrotation
								JOINT LeftHandRing2
								{
									OFFSET 0.022498 -0.005926 -0.004619
									CHANNELS 6 Xposition Yposition Zposition Xrotation Yrotation Zrotation
									JOINT LeftHandRing3
									{
										OFFSET 0.015218 -0.004009 -0.002483
										CHANNELS 6 Xposition Yposition Zposition Xrotation Yrotation Zrotation
										JOINT LeftHandRing3_end
										{
											OFFSET 0.024223 -0.006102 -0.004251
											CHANNELS 3 Xrotation Yrotation Zrotation
											End Site
											{
												OFFSET 0.024223 -0.006102 -0.004251
											}
										}
									}
								}
							}
							JOINT LeftHandPinky1
							{
								OFFSET 0.065852 -0.001390 -0.027662
								CHANNELS 6 Xposition Yposition Zposition Xrotation Yrotation Zrotation
								JOINT LeftHandPinky2
								{
									OFFSET 0.016314 -0.006006 -0.005028
									CHANNELS 6 Xposition Yposition Zposition Xrotation Yrotation Zrotation
									JOINT LeftHandPinky3
									{
										OFFSET 0.012272 -0.004690 -0.004579
										CHANNELS 6 Xposition Yposition Zposition Xrotation Yrotation Zrotation
										JOINT LeftHandPinky3_end
										{
											OFFSET 0.017090 -0.005763 -0.006620
											CHANNELS 3 Xrotation Yrotation Zrotation
											End Site
											{
												OFFSET 0.017090 -0.005763 -0.006620
											}
										}
									}
								}
							}
						}
					}
				}
			}
			JOINT RightShoulder
			{
				OFFSET -0.042115 0.203778 -0.040167
				CHANNELS 6 Xposition Yposition Zposition Xrotation Yrotation Zrotation
				JOINT RightArm
				{
					OFFSET -0.055438 0.000000 -0.000000
					CHANNELS 6 Xposition Yposition Zposition Xrotation Yrotation Zrotation
					JOINT RightForeArm
					{
						OFFSET -0.233776 -0.001236 0.000334
						CHANNELS 6 Xposition Yposition Zposition Xrotation Yrotation Zrotation
						JOINT RightHand
						{
							OFFSET -0.162475 -0.001188 0.000363
							CHANNELS 6 Xposition Yposition Zposition Xrotation Yrotation Zrotation
							JOINT RightHandThumb1
							{
								OFFSET -0.025104 -0.009041 0.020916
								CHANNELS 6 Xposition Yposition Zposition Xrotation Yrotation Zrotation
								JOINT RightHandThumb2
								{
									OFFSET -0.025794 -0.011217 0.015374
									CHANNELS 6 Xposition Yposition Zposition Xrotation Yrotation Zrotation
									JOINT RightHandThumb3
									{
										OFFSET -0.014296 -0.006168 0.008195
										CHANNELS 6 Xposition Yposition Zposition Xrotation Yrotation Zrotation
										JOINT RightHandThumb3_end
										{
											OFFSET -0.021616 -0.009106 0.011975
											CHANNELS 3 Xrotation Yrotation Zrotation
											End Site
											{
												OFFSET -0.021616 -0.009106 0.011975
											}
										}
									}
								}
							}
							JOINT RightHandIndex1
							{
								OFFSET -0.080438 0.009889 0.024813
								CHANNELS 6 Xposition Yposition Zposition Xrotation Yrotation Zrotation
								JOINT RightHandIndex2
								{
									OFFSET -0.024270 0.000119 0.002685
									CHANNELS 6 Xposition Yposition Zposition Xrotation Yrotation Zrotation
									JOINT RightHandIndex3
									{
										OFFSET -0.016100 0.000079 0.000374
										CHANNELS 6 Xposition Yposition Zposition Xrotation Yrotation Zrotation
										JOINT RightHandIndex3_end
										{
											OFFSET -0.021146 -0.002789 0.000532
											CHANNELS 3 Xrotation Yrotation Zrotation
											End Site
											{
												OFFSET -0.021146 -0.002789 0.000532
											}
										}
									}
								}
							}
							JOINT RightHandMiddle1
							{
								OFFSET -0.080382 0.010068 0.004399
								CHANNELS 6 Xposition Yposition Zposition Xrotation Yrotation Zrotation
								JOINT RightHandMiddle2
								{
									OFFSET -0.025270 -0.002341 -0.000809
									CHANNELS 6 Xposition Yposition Zposition Xrotation Yrotation Zrotation
									JOINT RightHandMiddle3
									{
										OFFSET -0.019315 -0.001791 -0.001177
										CHANNELS 6 Xposition Yposition Zposition Xrotation Yrotation Zrotation
										JOINT RightHandMiddle3_end
										{
											OFFSET -0.021487 -0.004668 -0.001407
											CHANNELS 3 Xrotation Yrotation Zrotation
											End Site
											{
												OFFSET -0.021487 -0.004668 -0.001407
											}
										}
									}
								}
							}
							JOINT RightHandRing1
							{
								OFFSET -0.076621 0.006158 -0.013662
								CHANNELS 6 Xposition Yposition Zposition Xrotation Yrotation Zrotation
								JOINT RightHandRing2
								{
									OFFSET -0.022499 -0.005920 -0.004618
									CHANNELS 6 Xposition Yposition Zposition Xrotation Yrotation Zrotation
									JOINT RightHandRing3
									{
										OFFSET -0.015219 -0.004005 -0.002483
										CHANNELS 6 Xposition Yposition Zposition Xrotation Yrotation Zrotation
										JOINT RightHandRing3_end
										{
											OFFSET -0.024025 -0.006961 -0.004048
											CHANNELS 3 Xrotation Yrotation Zrotation
											End Site
											{
												OFFSET -0.024025 -0.006961 -0.004048
											}
										}
									}
								}
							}
							JOINT RightHandPinky1
							{
								OFFSET -0.065853 -0.001392 -0.027657
								CHANNELS 6 Xposition Yposition Zposition Xrotation Yrotation Zrotation
								JOINT RightHandPinky2
								{
									OFFSET -0.016314 -0.006011 -0.005027
									CHANNELS 6 Xposition Yposition Zposition Xrotation Yrotation Zrotation
									JOINT RightHandPinky3
									{
										OFFSET -0.012272 -0.004690 -0.004579
										CHANNELS 6 Xposition Yposition Zposition Xrotation Yrotation Zrotation
										JOINT RightHandPinky3_end
										{
											OFFSET -0.017174 -0.005822 -0.006343
											CHANNELS 3 Xrotation Yrotation Zrotation
											End Site
											{
												OFFSET -0.017174 -0.005822 -0.006343
											}
										}
									}
								}
							}
						}
					}
				}
			}
			JOINT Neck
			{
				OFFSET -0.000000 0.239333 -0.042235
				CHANNELS 6 Xposition Yposition Zposition Xrotation Yrotation Zrotation
				JOINT Head
				{
					OFFSET -0.000000 0.078253 -0.002022
					CHANNELS 6 Xposition Yposition Zposition Xrotation Yrotation Zrotation
					JOINT Head_end
					{
						OFFSET -0.002461 0.155257 -0.021358
						CHANNELS 3 Xrotation Yrotation Zrotation
						End Site
						{
							OFFSET -0.002461 0.155257 -0.021358
						}
					}
				}
			}
		}
	}
}
MOTION
Frames: 4
Frame Time: 0.033333
-0.122929 0.825349 -0.042075 6.440946 -3.391428 -3.426608 0.074879 -0.061236 0.002079 -31.719767 1.752972 -2.015263 -0.017675 -0.350308 -0.015221 51.591260 12.432770 -4.687324 -0.010321 -0.378203 -0.016503 -13.629313 16.356377 -19.678685 0.002025 -0.052755 0.081308 -1.638352 0.007402 -0.146851 0.000001 0.000002 -0.000002 -0.074845 -0.057343 0.002079 -31.569018 4.636538 -1.069528 0.018235 -0.351096 -0.015874 45.121138 -2.443217 -0.868022 0.010317 -0.378179 -0.017101 -16.577518 -2.799891 -8.451064 -0.002025 -0.052879 0.081241 -0.587801 0.001110 0.072938 -0.000000 0.000000 0.000002 -0.000000 0.022713 0.008181 2.303975 0.323907 -0.267878 -0.000000 0.090859 0.009554 -5.648169 0.783642 -1.228785 0.042115 0.203778 -0.040167 0.213080 4.419967 -4.208968 0.055436 0.000000 -0.000000 40.342038 -33.872021 -56.898143 0.233774 -0.001235 0.000334 -200.613803 -165.231319 -190.096705 0.162477 -0.001188 0.000358 -37.763932 2.523928 22.262460 0.025104 -0.009040 0.020916 -29.074124 -14.372175 3.729438 0.025705 -0.011305 0.015845 -2.826180 -8.248411 -2.241937 0.014208 -0.006058 0.008426 -3.462293 -9.964257 -2.554936 0.000001 -0.000005 -0.000002 0.080439 0.009893 0.024808 -6.391729 -6.496562 13.474029 0.024270 0.000119 0.002684 -9.299842 -2.823313 3.110511 0.016099 0.000079 0.000373 -4.797631 1.328982 2.101294 -0.000001 0.000002 -0.000001 0.080382 0.010074 0.004393 -3.846701 -7.214398 19.469427 0.025270 -0.002344 -0.000810 -4.344461 1.449592 4.111044 0.019313 -0.001794 -0.001178 -1.725692 0.844232 1.526882 -0.000003 0.000002 -0.000004 0.076621 0.006165 -0.013667 -7.624438 -6.177863 27.073598 0.022498 -0.005926 -0.004619 -2.508767 5.113609 3.586656 0.015218 -0.004009 -0.002483 -4.642837 2.549994 3.084008 -0.000000 -0.000001 0.000002 0.065852 -0.001390 -0.027662 -10.102886 -4.230008 31.216092 0.016314 -0.006006 -0.005028 -4.209007 0.345073 3.474049 0.012272 -0.004690 -0.004579 -1.591222 1.712103 -0.284270 -0.000000 -0.000002 -0.000003 -0.042115 0.203778 -0.040167 0.244636 13.517676 -2.434911 -0.055438 0.000000 0.000000 -33.782891 7.867325 11.382135 -0.233776 -0.001236 0.000334 490.061374 44.121547 -534.920198 -0.162475 -0.001188 0.000363 15.333141 27.783295 -12.077805 -0.025104 -0.009041 0.020916 -8.951704 -1.440283 13.265020 -0.025794 -0.011216 0.015374 -0.852253 4.585468 3.604042 -0.014295 -0.006168 0.008195 -1.333395 6.310177 4.025847 -0.000000 0.000003 0.000003 -0.080438 0.009889 0.024813 27.255011 -10.940125 84.402382 -0.024270 0.000119 0.002685 4.658195 -9.397957 81.877617 -0.016100 0.000079 0.000374 9.288055 -15.906312 74.121028 0.000000 -0.000003 -0.000000 -0.080381 0.010068 0.004399 10.098718 -8.622517 76.357717 -0.025270 -0.002341 -0.000809 2.366220 -12.660907 81.680675 -0.019315 -0.001790 -0.001177 2.053627 -12.319895 74.635287 0.000001 -0.000000 0.000003 -0.076621 0.006158 -0.013662 -10.186777 -15.846623 62.315272 -0.022499 -0.005920 -0.004618 10.904532 -27.178989 81.165972 -0.015219 -0.004005 -0.002483 8.068064 -25.734145 78.852273 0.000001 -0.000003 -0.000000 -0.065852 -0.001391 -0.027657 -7.034964 0.442829 -35.605134 -0.016314 -0.006011 -0.005027 -4.314071 -0.307208 -1.065527 -0.012272 -0.004690 -0.004579 -2.024111 -2.585750 2.345406 -0.000006 -0.000003 -0.000000 -0.000000 0.239334 -0.042235 0.679490 0.642683 -2.048410 0.000000 0.078253 -0.002022 0.724581 0.630172 -2.011168 0.000001 0.000000 -0.000000 
-0.129143 0.818245 -0.033679 6.543060 0.015408 -4.582799 0.074879 -0.061236 0.002079 -30.898314 1.936838 -2.624557 -0.017675 -0.350308 -0.015221 50.684983 14.787453 -4.752133 -0.010321 -0.378203 -0.016503 -16.090223 16.597122 -11.771947 0.002025 -0.052755 0.081308 -3.901708 0.024610 -0.350803 0.000000 0.000002 -0.000001 -0.074845 -0.057343 0.002079 -30.821461 4.423010 -0.497816 0.018235 -0.351096 -0.015874 45.944907 -3.134441 -0.710050 0.010317 -0.378179 -0.017101 -18.101634 -4.528856 -4.397822 -0.002025 -0.052879 0.081241 -0.603309 0.001121 0.074301 -0.000000 -0.000000 -0.000001 -0.000000 0.022713 0.008181 2.262091 0.547694 0.009102 -0.000000 0.090859 0.009554 -5.868829 1.354530 -0.756643 0.042115 0.203778 -0.040167 0.239813 4.571651 -4.668106 0.055437 0.000000 -0.000000 37.180217 -32.175843 -58.171710 0.233774 -0.001235 0.000334 -206.977640 -165.374712 -191.226254 0.162477 -0.001189 0.000358 -40.580814 1.587692 28.511733 0.025104 -0.009040 0.020916 -29.074117 -14.372171 3.729443 0.025705 -0.011304 0.015845 -2.826175 -8.248409 -2.241942 0.014208 -0.006058 0.008426 -3.462297 -9.964258 -2.554939 -0.000003 0.000002 0.000001 0.080439 0.009893 0.024808 -6.391734 -6.496557 13.474033 0.024270 0.000119 0.002684 -9.299846 -2.823311 3.110509 0.016099 0.000079 0.000373 -4.797627 1.328980 2.101295 0.000001 -0.000001 0.000001 0.080382 0.010074 0.004393 -3.846700 -7.214392 19.469427 0.025270 -0.002344 -0.000810 -4.344462 1.449591 4.111044 0.019313 -0.001793 -0.001178 -1.725688 0.844234 1.526876 -0.000002 0.000005 0.000001 0.076621 0.006165 -0.013667 -7.624436 -6.177859 27.073598 0.022498 -0.005926 -0.004619 -2.508773 5.113614 3.586657 0.015218 -0.004009 -0.002483 -4.642836 2.549996 3.084004 -0.000001 0.000001 -0.000003 0.065851 -0.001390 -0.027662 -10.104905 -4.229719 31.207168 0.016314 -0.006006 -0.005028 -4.211404 0.346212 3.466529 0.012272 -0.004690 -0.004579 -1.593880 1.712864 -0.291683 -0.000000 0.000003 -0.000001 -0.042115 0.203778 -0.040167 0.204231 11.327094 -2.428179 -0.055438 0.000000 -0.000000 -34.239117 7.274933 13.249049 -0.233776 -0.001236 0.000334 489.471628 43.282680 -535.030738 -0.162475 -0.001188 0.000363 15.286920 27.183103 -12.018326 -0.025104 -0.009041 0.020915 -8.951701 -1.440287 13.265014 -0.025794 -0.011217 0.015374 -0.852255 4.585465 3.604042 -0.014295 -0.006168 0.008195 -1.333392 6.310166 4.025844 -0.000002 -0.000003 -0.000000 -0.080438 0.009889 0.024813 27.255067 -10.940157 84.402376 -0.024270 0.000119 0.002685 4.658196 -9.397953 81.877624 -0.016100 0.000079 0.000374 9.288052 -15.906302 74.121063 0.000001 -0.000001 0.000002 -0.080382 0.010068 0.004399 10.098717 -8.622516 76.357717 -0.025270 -0.002341 -0.000809 2.366105 -12.660883 81.680060 -0.019315 -0.001791 -0.001177 2.053558 -12.319861 74.634836 -0.000001 -0.000003 -0.000002 -0.076621 0.006158 -0.013662 -10.182454 -15.851419 62.330216 -0.022499 -0.005920 -0.004618 10.909310 -27.180487 81.180446 -0.015219 -0.004005 -0.002483 8.073085 -25.735962 78.867552 0.000001 -0.000002 -0.000004 -0.065852 -0.001392 -0.027657 -7.034964 0.442830 -35.605134 -0.016314 -0.006010 -0.005027 -4.314068 -0.307213 -1.065532 -0.012272 -0.004690 -0.004579 -2.024101 -2.585770 2.345378 -0.000006 0.000001 -0.000006 -0.000000 0.239333 -0.042235 0.305889 -1.239768 -1.085347 -0.000000 0.078254 -0.002022 0.357053 -1.241560 -1.025279 -0.000000 0.000000 -0.000001 
-0.135436 0.807447 -0.021416 6.708764 3.532723 -5.590453 0.074879 -0.061236 0.002079 -31.006159 1.725409 -2.401833 -0.017675 -0.350308 -0.015221 52.842991 15.963936 -4.724111 -0.010321 -0.378203 -0.016503 -20.369354 16.834410 -6.114379 0.002025 -0.052755 0.081308 -5.877163 0.046227 -0.528145 0.000000 0.000002 0.000000 -0.074845 -0.057343 0.002079 -30.385411 4.282653 0.199736 0.018235 -0.351096 -0.015874 47.994786 -3.905273 -0.616289 0.010317 -0.378179 -0.017101 -20.610401 -6.483446 -0.449498 -0.002025 -0.052879 0.081241 -0.595772 0.001117 0.073642 0.000000 0.000000 0.000000 -0.000000 0.022713 0.008181 2.295092 0.932865 0.343956 0.000000 0.090859 0.009554 -5.729484 2.472296 -0.349184 0.042115 0.203778 -0.040167 0.268591 4.623898 -5.267591 0.055437 0.000000 -0.000000 33.290028 -30.347876 -58.874182 0.233774 -0.001235 0.000333 -217.641205 -167.167446 -192.559589 0.162477 -0.001188 0.000358 -46.149775 -3.615469 31.825922 0.025104 -0.009040 0.020916 -29.074121 -14.372168 3.729439 0.025705 -0.011305 0.015845 -2.826177 -8.248415 -2.241936 0.014208 -0.006058 0.008426 -3.462292 -9.964256 -2.554935 -0.000001 0.000000 0.000002 0.080439 0.009893 0.024808 -6.391731 -6.496558 13.474029 0.024270 0.000119 0.002684 -9.299846 -2.823307 3.110504 0.016099 0.000079 0.000373 -4.797630 1.328984 2.101296 -0.000001 -0.000001 -0.000002 0.080382 0.010074 0.004393 -3.846700 -7.214398 19.469425 0.025270 -0.002344 -0.000810 -4.344462 1.449595 4.111044 0.019313 -0.001794 -0.001178 -1.725690 0.844233 1.526873 0.000002 0.000002 -0.000001 0.076621 0.006165 -0.013667 -7.624433 -6.177860 27.073593 0.022498 -0.005926 -0.004619 -2.508772 5.113612 3.586653 0.015218 -0.004009 -0.002483 -4.642836 2.549998 3.084011 0.000001 -0.000000 -0.000000 0.065852 -0.001390 -0.027662 -10.107016 -4.229448 31.197879 0.016314 -0.006006 -0.005028 -4.213909 0.347389 3.458670 0.012272 -0.004690 -0.004579 -1.596633 1.713669 -0.299401 -0.000000 0.000000 0.000002 -0.042115 0.203778 -0.040167 0.230538 8.593710 -3.427306 -0.055437 0.000000 -0.000000 -34.346518 6.169017 14.360398 -0.233776 -0.001236 0.000334 489.094438 42.428073 -535.288974 -0.162475 -0.001189 0.000362 15.154431 26.928658 -12.118282 -0.025104 -0.009041 0.020916 -8.951704 -1.440274 13.265016 -0.025794 -0.011217 0.015374 -0.852254 4.585462 3.604038 -0.014295 -0.006168 0.008195 -1.333394 6.310168 4.025842 0.000002 -0.000000 0.000000 -0.080438 0.009889 0.024813 27.255141 -10.940201 84.402410 -0.024269 0.000120 0.002685 4.658195 -9.397956 81.877624 -0.016100 0.000079 0.000373 9.288054 -15.906307 74.121063 -0.000001 0.000001 -0.000002 -0.080382 0.010068 0.004399 10.098722 -8.622520 76.357717 -0.025270 -0.002341 -0.000809 2.366024 -12.660820 81.679459 -0.019315 -0.001791 -0.001177 2.053476 -12.319828 74.634304 -0.000001 0.000002 -0.000000 -0.076621 0.006158 -0.013662 -10.177965 -15.856445 62.345837 -0.022499 -0.005920 -0.004618 10.914620 -27.182145 81.196490 -0.015219 -0.004005 -0.002483 8.078106 -25.737736 78.882825 -0.000001 0.000000 -0.000000 -0.065853 -0.001392 -0.027657 -7.034967 0.442856 -35.605120 -0.016314 -0.006011 -0.005027 -4.314068 -0.307203 -1.065532 -0.012272 -0.004690 -0.004579 -2.024094 -2.585773 2.345376 0.000002 -0.000005 -0.000005 -0.000000 0.239334 -0.042235 -0.368284 -2.982542 -0.220066 -0.000000 0.078253 -0.002022 -0.310938 -2.980337 -0.147387 -0.000000 0.000000 -0.000000 
-0.140624 0.796248 -0.016520 7.239638 7.393403 -6.327115 0.074879 -0.061236 0.002079 -33.197861 1.344936 -1.451699 -0.017675 -0.350308 -0.015221 57.545232 13.525210 -4.666037 -0.010321 -0.378203 -0.016503 -22.297982 15.710702 -7.422774 0.002025 -0.052755 0.081308 -5.131093 0.037312 -0.461242 -0.000001 -0.000003 0.000000 -0.074845 -0.057343 0.002079 -30.950101 4.165381 0.722431 0.018235 -0.351096 -0.015874 50.452049 -5.562187 -0.623560 0.010317 -0.378179 -0.017101 -23.440786 -9.171384 2.185641 -0.002025 -0.052879 0.081241 -0.638645 0.001145 0.077407 -0.000000 -0.000000 0.000000 -0.000000 0.022713 0.008181 2.472067 1.412709 0.661247 0.000000 0.090859 0.009554 -5.181973 3.583623 0.027942 0.042115 0.203778 -0.040167 0.238776 3.636051 -5.948565 0.055437 0.000000 -0.000000 30.359040 -30.302104 -56.981704 0.233774 -0.001235 0.000334 -224.915083 -169.383623 -192.634830 0.162477 -0.001189 0.000358 -51.345148 -5.679975 34.669941 0.025104 -0.009040 0.020916 -29.074121 -14.372175 3.729440 0.025705 -0.011304 0.015845 -2.826183 -8.248412 -2.241930 0.014208 -0.006058 0.008426 -3.462300 -9.964255 -2.554940 0.000001 0.000004 -0.000000 0.080439 0.009893 0.024808 -6.391733 -6.496559 13.474037 0.024270 0.000119 0.002684 -9.299844 -2.823313 3.110508 0.016099 0.000079 0.000373 -4.797627 1.328985 2.101296 0.000002 0.000001 -0.000000 0.080382 0.010074 0.004393 -3.846702 -7.214399 19.469432 0.025270 -0.002344 -0.000810 -4.344462 1.449593 4.111043 0.019313 -0.001793 -0.001178 -1.725690 0.844230 1.526878 -0.000003 -0.000001 0.000001 0.076621 0.006165 -0.013667 -7.624437 -6.177865 27.073601 0.022498 -0.005926 -0.004619 -2.508770 5.113615 3.586659 0.015218 -0.004009 -0.002483 -4.642837 2.549991 3.084006 0.000005 0.000000 0.000004 0.065852 -0.001390 -0.027662 -10.109217 -4.229125 31.188215 0.016314 -0.006006 -0.005028 -4.216494 0.348615 3.450568 0.012272 -0.004690 -0.004579 -1.599525 1.714508 -0.307438 -0.000001 -0.000002 -0.000002 -0.042115 0.203778 -0.040167 0.283486 7.042344 -4.949319 -0.055437 0.000000 0.000000 -34.373624 4.693669 14.788210 -0.233776 -0.001235 0.000334 488.740470 41.498952 -535.671082 -0.162475 -0.001189 0.000363 14.898970 26.709250 -12.276147 -0.025104 -0.009041 0.020916 -8.951697 -1.440278 13.265016 -0.025794 -0.011216 0.015374 -0.852257 4.585453 3.604030 -0.014295 -0.006167 0.008195 -1.333386 6.310165 4.025839 -0.000003 0.000001 0.000002 -0.080438 0.009889 0.024813 27.255207 -10.940245 84.402410 -0.024270 0.000120 0.002685 4.658196 -9.397951 81.877617 -0.016100 0.000079 0.000374 9.288050 -15.906308 74.121028 0.000002 -0.000000 -0.000001 -0.080382 0.010069 0.004399 10.098722 -8.622521 76.357717 -0.025270 -0.002341 -0.000809 2.365899 -12.660813 81.678940 -0.019315 -0.001791 -0.001177 2.053411 -12.319769 74.633798 -0.000002 0.000001 -0.000005 -0.076621 0.006158 -0.013662 -10.173272 -15.861596 62.361984 -0.022499 -0.005920 -0.004618 10.919931 -27.183787 81.212507 -0.015219 -0.004005 -0.002483 8.083451 -25.739687 78.899101 -0.000000 -0.000000 0.000003 -0.065853 -0.001391 -0.027657 -7.034977 0.442890 -35.605120 -0.016314 -0.006011 -0.005027 -4.314067 -0.307209 -1.065533 -0.012272 -0.004690 -0.004579 -2.024095 -2.585772 2.345374 -0.000005 -0.000000 -0.000003 -0.000000 0.239333 -0.042235 -1.342994 -4.321981 0.543122 0.000000 0.078253 -0.002022 -1.284302 -4.322294 0.613446 -0.000000 -0.000000 -0.000000 
